<?xml version="1.0" encoding="UTF-8"?>
<svg width="1200" height="630" viewBox="0 0 1200 630" xmlns="http://www.w3.org/2000/svg">
  <!-- Background -->
  <rect width="1200" height="630" fill="#1a1a2e"/>

  <!-- Gradient overlay -->
  <defs>
    <linearGradient id="bgGradient" x1="0%" y1="0%" x2="100%" y2="100%">
      <stop offset="0%" style="stop-color:#16213e;stop-opacity:1" />
      <stop offset="100%" style="stop-color:#1a1a2e;stop-opacity:1" />
    </linearGradient>
  </defs>
  <rect width="1200" height="630" fill="url(#bgGradient)"/>

  <!-- Decorative elements -->
  <circle cx="100" cy="100" r="200" fill="#e94560" opacity="0.1"/>
  <circle cx="1100" cy="530" r="250" fill="#0f3460" opacity="0.3"/>

  <!-- Logo - logo_dark.svg embedded and scaled -->
  <g transform="translate(100, 180)">
    <rect x="0" y="0" width="200" height="200" rx="20" fill="#e94560" opacity="0.2"/>
    <g transform="translate(25, 15) scale(0.7)">
      <path d="M0 0 C24.75 0 49.5 0 75 0 C75 2.97 75 5.94 75 9 C77.97 9 80.94 9 84 9 C84 23.19 84 37.38 84 52 C68.82 52 53.64 52 38 52 C38 54.64 38 57.28 38 60 C47.24 60 56.48 60 66 60 C66 63.3 66 66.6 66 70 C55.44 70 44.88 70 34 70 C34 73.3 34 76.6 34 80 C32.35 80 30.7 80 29 80 C29 82.64 29 85.28 29 88 C35.27 88 41.54 88 48 88 C48 94.27 48 100.54 48 107 C44.37 107 40.74 107 37 107 C37 104.03 37 101.06 37 98 C34.36 98 31.72 98 29 98 C29 108.56 29 119.12 29 130 C26.03 130.33 23.06 130.66 20 131 C20 135.29 20 139.58 20 144 C17.03 144 14.06 144 11 144 C11 147.3 11 150.6 11 154 C7.7 154 4.4 154 1 154 C1 165.88 1 177.76 1 190 C4.3 190 7.6 190 11 190 C11 193.3 11 196.6 11 200 C4.4 200 -2.2 200 -9 200 C-9 190.76 -9 181.52 -9 172 C-11.97 172 -14.94 172 -18 172 C-18 169.03 -18 166.06 -18 163 C-20.97 163 -23.94 163 -27 163 C-27 165.97 -27 168.94 -27 172 C-29.97 172 -32.94 172 -36 172 C-36 175.3 -36 178.6 -36 182 C-38.97 182 -41.94 182 -45 182 C-45 184.64 -45 187.28 -45 190 C-43.0509375 189.9690625 -43.0509375 189.9690625 -41.0625 189.9375 C-39.70834367 189.91600546 -38.35243917 189.92851801 -37 190 C-36 191 -36 191 -36 200 C-42.27 200 -48.54 200 -55 200 C-55 187.79 -55 175.58 -55 163 C-58.3 163 -61.6 163 -65 163 C-65 160.03 -65 157.06 -65 154 C-67.97 154 -70.94 154 -74 154 C-74 150.7 -74 147.4 -74 144 C-76.97 144 -79.94 144 -83 144 C-83 141.03 -83 138.06 -83 135 C-85.97 135 -88.94 135 -92 135 C-92 132.03 -92 129.06 -92 126 C-94.97 126 -97.94 126 -101 126 C-101 107.19 -101 88.38 -101 69 C-98.03 69 -95.06 69 -92 69 C-91 70 -91 70 -90.88647461 71.76586914 C-90.89171143 72.51473389 -90.89694824 73.26359863 -90.90234375 74.03515625 C-90.90556641 74.84404297 -90.90878906 75.65292969 -90.91210938 76.48632812 C-90.92048828 77.33646484 -90.92886719 78.18660156 -90.9375 79.0625 C-90.94201172 79.91650391 -90.94652344 80.77050781 -90.95117188 81.65039062 C-90.96299627 83.76695663 -90.98093231 85.88348685 -91 88 C-88.03 88 -85.06 88 -82 88 C-82 90.97 -82 93.94 -82 97 C-79.03 97 -76.06 97 -73 97 C-73 99.97 -73 102.94 -73 106 C-67.06 106 -61.12 106 -55 106 C-55 103.03 -55 100.06 -55 97 C-52.03 97 -49.06 97 -46 97 C-46 94.03 -46 91.06 -46 88 C-41.38 88 -36.76 88 -32 88 C-32 85.03 -32 82.06 -32 79 C-27.71 79 -23.42 79 -19 79 C-19 76.36 -19 73.72 -19 71 C-20.98 70.505 -20.98 70.505 -23 70 C-23 68.68 -23 67.36 -23 66 C-24.65 66 -26.3 66 -28 66 C-28 64.35 -28 62.7 -28 61 C-29.32 61 -30.64 61 -32 61 C-32 59.68 -32 58.36 -32 57 C-40.91 57 -49.82 57 -59 57 C-59 58.32 -59 59.64 -59 61 C-63.95 61 -68.9 61 -74 61 C-74 59.68 -74 58.36 -74 57 C-75.32 57 -76.64 57 -78 57 C-78 55.35 -78 53.7 -78 52 C-81.3 52 -84.6 52 -88 52 C-88 50.35 -88 48.7 -88 47 C-90.97 47 -93.94 47 -97 47 C-97 45.35 -97 43.7 -97 42 C-95.35 42 -93.7 42 -92 42 C-92 40.35 -92 38.7 -92 37 C-89.03 37 -86.06 37 -83 37 C-83 35.68 -83 34.36 -83 33 C-80.03 33 -77.06 33 -74 33 C-74 31.35 -74 29.7 -74 28 C-63.11 28 -52.22 28 -41 28 C-41 29.65 -41 31.3 -41 33 C-36.38 33 -31.76 33 -27 33 C-27 34.32 -27 35.64 -27 37 C-24.03 37 -21.06 37 -18 37 C-18 38.65 -18 40.3 -18 42 C-16.35 42 -14.7 42 -13 42 C-13 43.32 -13 44.64 -13 46 C-11.68 46 -10.36 46 -9 46 C-9 33.79 -9 21.58 -9 9 C-6.03 9 -3.06 9 0 9 C0 6.03 0 3.06 0 0 Z M11 14 C11 16.97 11 19.94 11 23 C13.64 23 16.28 23 19 23 C19 20.03 19 17.06 19 14 C16.36 14 13.72 14 11 14 Z M-13 57 C-13 57.99 -13 58.98 -13 60 C-11.68 60 -10.36 60 -9 60 C-9 59.01 -9 58.02 -9 57 C-10.32 57 -11.64 57 -13 57 Z " fill="#FFFFFF" transform="translate(123,25)"/>
      <path d="M0 0 C10.89 0 21.78 0 33 0 C33 1.65 33 3.3 33 5 C37.62 5 42.24 5 47 5 C47 6.32 47 7.64 47 9 C49.97 9 52.94 9 56 9 C56 10.98 56 12.96 56 15 C57.32 15 58.64 15 60 15 C60 16.32 60 17.64 60 19 C61.65 19 63.3 19 65 19 C65 21.97 65 24.94 65 28 C63.35 28 61.7 28 60 28 C60 29.65 60 31.3 60 33 C61.65 33 63.3 33 65 33 C65 34.65 65 36.3 65 38 C67.97 38 70.94 38 74 38 C74 39.32 74 40.64 74 42 C76.64 42 79.28 42 82 42 C82.495 44.475 82.495 44.475 83 47 C89.6 47 96.2 47 103 47 C103 45.35 103 43.7 103 42 C104.65 42.33 106.3 42.66 108 43 C108 45.64 108 48.28 108 51 C97.11 51 86.22 51 75 51 C75 49.35 75 47.7 75 46 C70.38 46 65.76 46 61 46 C61 44.35 61 42.7 61 41 C60.236875 41.061875 59.47375 41.12375 58.6875 41.1875 C55.41795099 40.95939193 55.21972521 40.21972521 53 38 C49.89160979 37.2730774 49.89160979 37.2730774 47 37 C47 35.02 47 33.04 47 31 C46.01 31 45.02 31 44 31 C44 29.68 44 28.36 44 27 C43.195625 26.87625 42.39125 26.7525 41.5625 26.625 C40.2940625 26.315625 40.2940625 26.315625 39 26 C38.505 25.01 38.505 25.01 38 24 C35.91024991 23.49483001 35.91024991 23.49483001 33.5 23.3125 C32.6853125 23.22613281 31.870625 23.13976562 31.03125 23.05078125 C30.3609375 23.03402344 29.690625 23.01726562 29 23 C28.505 23.495 28.505 23.495 28 24 C30.97 24 33.94 24 37 24 C37 25.32 37 26.64 37 28 C29.41 28 21.82 28 14 28 C14 29.32 14 30.64 14 32 C9.71 32 5.42 32 1 32 C1 30.68 1 29.36 1 28 C-0.65 28 -2.3 28 -4 28 C-4 26.68 -4 25.36 -4 24 C-7.3 24 -10.6 24 -14 24 C-14 22.35 -14 20.7 -14 19 C-16.97 19 -19.94 19 -23 19 C-23 17.35 -23 15.7 -23 14 C-21.35 14 -19.7 14 -18 14 C-18 12.35 -18 10.7 -18 9 C-15.03 9 -12.06 9 -9 9 C-9 7.68 -9 6.36 -9 5 C-6.03 5 -3.06 5 0 5 C0 3.35 0 1.7 0 0 Z " fill="#F60504" transform="translate(49,53)"/>
      <path d="M0 0 C8.91 0 17.82 0 27 0 C27 1.32 27 2.64 27 4 C29.97 4 32.94 4 36 4 C36 5.65 36 7.3 36 9 C38.97 9 41.94 9 45 9 C45 10.32 45 11.64 45 13 C37.41 13 29.82 13 22 13 C22 14.32 22 15.64 22 17 C17.71 17 13.42 17 9 17 C9 15.68 9 14.36 9 13 C7.35 13 5.7 13 4 13 C4 11.35 4 9.7 4 8 C1.03 8 -1.94 8 -5 8 C-5 6.68 -5 5.36 -5 4 C-3.35 4 -1.7 4 0 4 C0 2.68 0 1.36 0 0 Z " fill="#990C0F" transform="translate(41,68)"/>
    </g>
  </g>

  <!-- Main title -->
  <text x="350" y="260" font-family="Arial, Helvetica, sans-serif" font-size="72" font-weight="bold" fill="#ffffff">
    SupDino
  </text>

  <!-- Tagline -->
  <text x="350" y="320" font-family="Arial, Helvetica, sans-serif" font-size="28" fill="#a0a0a0">
    Master algorithms, mathematics, distributed systems
  </text>
  <text x="350" y="360" font-family="Arial, Helvetica, sans-serif" font-size="28" fill="#a0a0a0">
    and storage systems
  </text>

  <!-- Topics badges -->
  <g transform="translate(350, 400)">
    <rect x="0" y="0" width="120" height="40" rx="20" fill="#e94560"/>
    <text x="60" y="27" font-family="Arial, sans-serif" font-size="14" fill="#ffffff" text-anchor="middle">Algorithms</text>
  </g>
  <g transform="translate(480, 400)">
    <rect x="0" y="0" width="120" height="40" rx="20" fill="#0f3460"/>
    <text x="60" y="27" font-family="Arial, sans-serif" font-size="14" fill="#ffffff" text-anchor="middle">Mathematics</text>
  </g>
  <g transform="translate(610, 400)">
    <rect x="0" y="0" width="140" height="40" rx="20" fill="#2d6a4f"/>
    <text x="70" y="27" font-family="Arial, sans-serif" font-size="14" fill="#ffffff" text-anchor="middle">Storage Systems</text>
  </g>
  <g transform="translate(760, 400)">
    <rect x="0" y="0" width="160" height="40" rx="20" fill="#533483"/>
    <text x="80" y="27" font-family="Arial, sans-serif" font-size="14" fill="#ffffff" text-anchor="middle">Distributed Systems</text>
  </g>

  <!-- Website URL -->
  <text x="350" y="520" font-family="Arial, Helvetica, sans-serif" font-size="28" fill="#666666">
    supdino.com
  </text>

  <!-- Bottom accent line -->
  <rect x="0" y="610" width="1200" height="20" fill="#e94560"/>
</svg>

